<?xml version="1.0" encoding="utf-8"?>
<!-- Generated by IcoMoon.io -->
<!DOCTYPE svg PUBLIC "-//W3C//DTD SVG 1.1//EN" "http://www.w3.org/Graphics/SVG/1.1/DTD/svg11.dtd">
<svg version="1.1" xmlns="http://www.w3.org/2000/svg" xmlns:xlink="http://www.w3.org/1999/xlink" width="24" height="24" viewBox="0 0 24 24">
<path fill="#000000" d="M12 5.511c0.561 0 1.119 0.354 1.544 1.062l5.912 9.854c0.851 1.415 0.194 2.573-1.456 2.573h-12c-1.65 0-2.307-1.159-1.456-2.573l5.912-9.854c0.425-0.708 0.983-1.062 1.544-1.062zM12 3.511c-1.296 0-2.482 0.74-3.259 2.031l-5.912 9.856c-0.786 1.309-0.872 2.705-0.235 3.83s1.879 1.772 3.406 1.772h12c1.527 0 2.77-0.646 3.406-1.771s0.551-2.521-0.235-3.83l-5.912-9.854c-0.777-1.294-1.963-2.034-3.259-2.034z"></path>
<path fill="#000000" d="M13.3 16c0 0.718-0.582 1.3-1.3 1.3s-1.3-0.582-1.3-1.3 0.582-1.3 1.3-1.3c0.718 0 1.3 0.582 1.3 1.3z"></path>
<path fill="#000000" d="M13.5 10c0-0.83-0.671-1.5-1.5-1.5s-1.5 0.67-1.5 1.5c0 0.199 0.041 0.389 0.111 0.562 0.554 1.376 1.389 3.438 1.389 3.438s0.835-2.062 1.391-3.438c0.068-0.173 0.109-0.363 0.109-0.562z"></path>
</svg>
